<?xml version="1.0" encoding="UTF-8" standalone="no"?>
<!-- Created with Inkscape (http://www.inkscape.org/) -->

<svg
   width="50mm"
   height="50mm"
   viewBox="0 0 50 50"
   version="1.1"
   id="svg5"
   inkscape:version="1.1.1 (3bf5ae0d25, 2021-09-20)"
   sodipodi:docname="tracking.svg"
   xmlns:inkscape="http://www.inkscape.org/namespaces/inkscape"
   xmlns:sodipodi="http://sodipodi.sourceforge.net/DTD/sodipodi-0.dtd"
   xmlns="http://www.w3.org/2000/svg"
   xmlns:svg="http://www.w3.org/2000/svg">
  <sodipodi:namedview
     id="namedview7"
     pagecolor="#ffffff"
     bordercolor="#666666"
     borderopacity="1.0"
     inkscape:pageshadow="2"
     inkscape:pageopacity="0.0"
     inkscape:pagecheckerboard="0"
     inkscape:document-units="mm"
     showgrid="false"
     fit-margin-top="0"
     fit-margin-left="0"
     fit-margin-right="0"
     fit-margin-bottom="0"
     inkscape:zoom="0.72337262"
     inkscape:cx="77.415151"
     inkscape:cy="176.25771"
     inkscape:window-width="1920"
     inkscape:window-height="1001"
     inkscape:window-x="2391"
     inkscape:window-y="452"
     inkscape:window-maximized="1"
     inkscape:current-layer="layer1" />
  <defs
     id="defs2" />
  <g
     inkscape:label="Capa 1"
     inkscape:groupmode="layer"
     id="layer1"
     transform="translate(-84.608916,-102.19602)">
    <g
       transform="matrix(2.0837657,0,0,2.3809524,-359.24147,-652.56589)"
       id="g830">
      <path
         d="m 218.334,325.085 c 0.534,0 1.003,0.686 0.524,1.202 -0.258,0.276 -0.466,0.596 -0.62,0.944 -0.134,0.298 -0.373,0.423 -0.614,0.423 -0.452,0 -0.908,-0.441 -0.666,-1.001 0.221,-0.49 0.516,-0.942 0.878,-1.336 0.153,-0.164 0.329,-0.232 0.498,-0.232 z m -1.638,3.756 c 0.431,0 0.868,0.38 0.689,0.93 l -0.221,0.671 c -0.113,0.339 -0.374,0.484 -0.639,0.484 -0.43,0 -0.87,-0.382 -0.689,-0.934 l 0.22,-0.671 c 0.113,-0.336 0.376,-0.48 0.64,-0.48 z m 3.303,-11.84 -6.558,2.652 c -0.265,0.106 -0.437,0.367 -0.437,0.657 v 16.981 c -0.003,0.406 0.324,0.709 0.695,0.709 0.086,0 0.176,-0.016 0.264,-0.053 l 6.036,-2.441 z"
         fill="#fff"
         fill-rule="evenodd"
         id="path824" />
      <path
         d="m 225.063,325.317 c 0.175,0 0.355,0.076 0.504,0.257 0.29,0.353 0.53,0.745 0.715,1.163 0.325,0.694 -0.044,1.194 -0.495,1.194 -0.266,0 -0.562,-0.176 -0.758,-0.593 -0.133,-0.3 -0.306,-0.582 -0.513,-0.836 -0.444,-0.537 0.032,-1.185 0.547,-1.185 z M 222.001,317 v 6.915 c 0.264,0 0.53,0.027 0.792,0.072 0.839,0.158 0.676,1.419 -0.103,1.419 -0.048,0 -0.099,-0.005 -0.152,-0.015 -0.176,-0.027 -0.357,-0.042 -0.537,-0.05 v 10.282 L 229,338 v -7.87 c -0.022,0.002 -0.046,0.002 -0.075,0.002 -0.319,0 -0.966,-0.124 -1.557,-0.394 -0.728,-0.336 -0.391,-1.374 0.263,-1.374 0.094,0 0.196,0.021 0.301,0.069 0.335,0.157 0.696,0.252 1.068,0.282 v -9.338 z"
         fill="#fff"
         fill-rule="evenodd"
         id="path826" />
      <path
         d="m 233.471,324.077 c 0.439,0 0.887,0.402 0.68,0.956 l -0.243,0.661 c -0.121,0.324 -0.375,0.461 -0.632,0.461 -0.44,0 -0.885,-0.403 -0.678,-0.96 l 0.247,-0.661 c 0.118,-0.322 0.371,-0.457 0.626,-0.457 z m -1.364,3.172 c 0.506,0 0.992,0.597 0.58,1.143 -0.324,0.43 -0.72,0.795 -1.167,1.09 -0.134,0.088 -0.267,0.125 -0.391,0.125 -0.603,0 -1.009,-0.897 -0.37,-1.313 0.316,-0.204 0.592,-0.465 0.82,-0.763 0.149,-0.2 0.34,-0.282 0.528,-0.282 z M 236.297,317 c -0.087,0 -0.175,0.016 -0.261,0.051 L 230,319.493 v 18.506 l 6.559,-2.652 c 0.265,-0.107 0.44,-0.367 0.44,-0.657 V 317.708 C 236.996,317.301 236.667,317 236.297,317 Z"
         fill="#fff"
         fill-rule="evenodd"
         id="path828" />
    </g>
  </g>
</svg>
